<?xml version="1.0" encoding="UTF-8" standalone="no"?>
<!DOCTYPE svg PUBLIC "-//W3C//DTD SVG 1.1//EN"
 "http://www.w3.org/Graphics/SVG/1.1/DTD/svg11.dtd">
<!-- Generated by graphviz version 2.43.0 (0)
 -->
<!-- Title: %3 Pages: 1 -->
<svg width="1479pt" height="210pt"
 viewBox="0.00 0.00 1479.00 210.00" xmlns="http://www.w3.org/2000/svg" xmlns:xlink="http://www.w3.org/1999/xlink">
<g id="graph0" class="graph" transform="scale(1 1) rotate(0) translate(4 206)">
<title>%3</title>
<polygon fill="white" stroke="transparent" points="-4,4 -4,-206 1475,-206 1475,4 -4,4"/>
<!-- 140013933902864 -->
<g id="node1" class="node">
<title>140013933902864</title>
<polygon fill="none" stroke="black" points="375,-55.5 375,-91.5 648,-91.5 648,-55.5 375,-55.5"/>
<text text-anchor="middle" x="406" y="-69.8" font-family="Times,serif" font-size="14.00">x1*w1</text>
<polyline fill="none" stroke="black" points="437,-55.5 437,-91.5 "/>
<text text-anchor="middle" x="490.5" y="-69.8" font-family="Times,serif" font-size="14.00">data &#45;6.0000</text>
<polyline fill="none" stroke="black" points="544,-55.5 544,-91.5 "/>
<text text-anchor="middle" x="596" y="-69.8" font-family="Times,serif" font-size="14.00">grad 0.0000</text>
</g>
<!-- 140013933902544+ -->
<g id="node9" class="node">
<title>140013933902544+</title>
<ellipse fill="none" stroke="black" cx="711" cy="-100.5" rx="27" ry="18"/>
<text text-anchor="middle" x="711" y="-96.8" font-family="Times,serif" font-size="14.00">+</text>
</g>
<!-- 140013933902864&#45;&gt;140013933902544+ -->
<g id="edge8" class="edge">
<title>140013933902864&#45;&gt;140013933902544+</title>
<path fill="none" stroke="black" d="M644.24,-91.51C655.12,-93 665.4,-94.4 674.45,-95.64"/>
<polygon fill="black" stroke="black" points="674.11,-99.13 684.49,-97.01 675.05,-92.19 674.11,-99.13"/>
</g>
<!-- 140013933902864* -->
<g id="node2" class="node">
<title>140013933902864*</title>
<ellipse fill="none" stroke="black" cx="312" cy="-73.5" rx="27" ry="18"/>
<text text-anchor="middle" x="312" y="-69.8" font-family="Times,serif" font-size="14.00">*</text>
</g>
<!-- 140013933902864*&#45;&gt;140013933902864 -->
<g id="edge1" class="edge">
<title>140013933902864*&#45;&gt;140013933902864</title>
<path fill="none" stroke="black" d="M339.23,-73.5C346.7,-73.5 355.41,-73.5 364.87,-73.5"/>
<polygon fill="black" stroke="black" points="364.98,-77 374.98,-73.5 364.98,-70 364.98,-77"/>
</g>
<!-- 140013933902352 -->
<g id="node3" class="node">
<title>140013933902352</title>
<polygon fill="none" stroke="black" points="4.5,-165.5 4.5,-201.5 244.5,-201.5 244.5,-165.5 4.5,-165.5"/>
<text text-anchor="middle" x="21.5" y="-179.8" font-family="Times,serif" font-size="14.00">x2</text>
<polyline fill="none" stroke="black" points="38.5,-165.5 38.5,-201.5 "/>
<text text-anchor="middle" x="89.5" y="-179.8" font-family="Times,serif" font-size="14.00">data 0.0000</text>
<polyline fill="none" stroke="black" points="140.5,-165.5 140.5,-201.5 "/>
<text text-anchor="middle" x="192.5" y="-179.8" font-family="Times,serif" font-size="14.00">grad 0.0000</text>
</g>
<!-- 140013933902992* -->
<g id="node7" class="node">
<title>140013933902992*</title>
<ellipse fill="none" stroke="black" cx="312" cy="-128.5" rx="27" ry="18"/>
<text text-anchor="middle" x="312" y="-124.8" font-family="Times,serif" font-size="14.00">*</text>
</g>
<!-- 140013933902352&#45;&gt;140013933902992* -->
<g id="edge11" class="edge">
<title>140013933902352&#45;&gt;140013933902992*</title>
<path fill="none" stroke="black" d="M218.13,-165.46C228.63,-162.77 239.1,-159.78 249,-156.5 259.71,-152.96 271.05,-148.16 281.07,-143.54"/>
<polygon fill="black" stroke="black" points="282.67,-146.66 290.2,-139.21 279.67,-140.33 282.67,-146.66"/>
</g>
<!-- 140013933902416 -->
<g id="node4" class="node">
<title>140013933902416</title>
<polygon fill="none" stroke="black" points="4.5,-55.5 4.5,-91.5 244.5,-91.5 244.5,-55.5 4.5,-55.5"/>
<text text-anchor="middle" x="21.5" y="-69.8" font-family="Times,serif" font-size="14.00">x1</text>
<polyline fill="none" stroke="black" points="38.5,-55.5 38.5,-91.5 "/>
<text text-anchor="middle" x="89.5" y="-69.8" font-family="Times,serif" font-size="14.00">data 2.0000</text>
<polyline fill="none" stroke="black" points="140.5,-55.5 140.5,-91.5 "/>
<text text-anchor="middle" x="192.5" y="-69.8" font-family="Times,serif" font-size="14.00">grad 0.0000</text>
</g>
<!-- 140013933902416&#45;&gt;140013933902864* -->
<g id="edge12" class="edge">
<title>140013933902416&#45;&gt;140013933902864*</title>
<path fill="none" stroke="black" d="M244.55,-73.5C255.31,-73.5 265.54,-73.5 274.62,-73.5"/>
<polygon fill="black" stroke="black" points="274.7,-77 284.7,-73.5 274.7,-70 274.7,-77"/>
</g>
<!-- 140013933902480 -->
<g id="node5" class="node">
<title>140013933902480</title>
<polygon fill="none" stroke="black" points="0,-0.5 0,-36.5 249,-36.5 249,-0.5 0,-0.5"/>
<text text-anchor="middle" x="19" y="-14.8" font-family="Times,serif" font-size="14.00">w1</text>
<polyline fill="none" stroke="black" points="38,-0.5 38,-36.5 "/>
<text text-anchor="middle" x="91.5" y="-14.8" font-family="Times,serif" font-size="14.00">data &#45;3.0000</text>
<polyline fill="none" stroke="black" points="145,-0.5 145,-36.5 "/>
<text text-anchor="middle" x="197" y="-14.8" font-family="Times,serif" font-size="14.00">grad 0.0000</text>
</g>
<!-- 140013933902480&#45;&gt;140013933902864* -->
<g id="edge7" class="edge">
<title>140013933902480&#45;&gt;140013933902864*</title>
<path fill="none" stroke="black" d="M214.42,-36.55C226.15,-39.54 237.93,-42.87 249,-46.5 259.46,-49.93 270.57,-54.47 280.46,-58.84"/>
<polygon fill="black" stroke="black" points="279.31,-62.17 289.87,-63.12 282.21,-55.79 279.31,-62.17"/>
</g>
<!-- 140013933902992 -->
<g id="node6" class="node">
<title>140013933902992</title>
<polygon fill="none" stroke="black" points="377.5,-110.5 377.5,-146.5 645.5,-146.5 645.5,-110.5 377.5,-110.5"/>
<text text-anchor="middle" x="408.5" y="-124.8" font-family="Times,serif" font-size="14.00">x2*w2</text>
<polyline fill="none" stroke="black" points="439.5,-110.5 439.5,-146.5 "/>
<text text-anchor="middle" x="490.5" y="-124.8" font-family="Times,serif" font-size="14.00">data 0.0000</text>
<polyline fill="none" stroke="black" points="541.5,-110.5 541.5,-146.5 "/>
<text text-anchor="middle" x="593.5" y="-124.8" font-family="Times,serif" font-size="14.00">grad 0.0000</text>
</g>
<!-- 140013933902992&#45;&gt;140013933902544+ -->
<g id="edge5" class="edge">
<title>140013933902992&#45;&gt;140013933902544+</title>
<path fill="none" stroke="black" d="M639.53,-110.49C652.09,-108.71 663.99,-107.02 674.3,-105.56"/>
<polygon fill="black" stroke="black" points="675.03,-108.99 684.44,-104.12 674.05,-102.06 675.03,-108.99"/>
</g>
<!-- 140013933902992*&#45;&gt;140013933902992 -->
<g id="edge2" class="edge">
<title>140013933902992*&#45;&gt;140013933902992</title>
<path fill="none" stroke="black" d="M339.23,-128.5C347.26,-128.5 356.72,-128.5 366.99,-128.5"/>
<polygon fill="black" stroke="black" points="367.08,-132 377.08,-128.5 367.08,-125 367.08,-132"/>
</g>
<!-- 140013933902544 -->
<g id="node8" class="node">
<title>140013933902544</title>
<polygon fill="none" stroke="black" points="774,-82.5 774,-118.5 1113,-118.5 1113,-82.5 774,-82.5"/>
<text text-anchor="middle" x="838" y="-96.8" font-family="Times,serif" font-size="14.00">x1*w1 + x2*w2</text>
<polyline fill="none" stroke="black" points="902,-82.5 902,-118.5 "/>
<text text-anchor="middle" x="955.5" y="-96.8" font-family="Times,serif" font-size="14.00">data &#45;6.0000</text>
<polyline fill="none" stroke="black" points="1009,-82.5 1009,-118.5 "/>
<text text-anchor="middle" x="1061" y="-96.8" font-family="Times,serif" font-size="14.00">grad 0.0000</text>
</g>
<!-- 140013933902608+ -->
<g id="node11" class="node">
<title>140013933902608+</title>
<ellipse fill="none" stroke="black" cx="1176" cy="-127.5" rx="27" ry="18"/>
<text text-anchor="middle" x="1176" y="-123.8" font-family="Times,serif" font-size="14.00">+</text>
</g>
<!-- 140013933902544&#45;&gt;140013933902608+ -->
<g id="edge9" class="edge">
<title>140013933902544&#45;&gt;140013933902608+</title>
<path fill="none" stroke="black" d="M1098.25,-118.51C1113.17,-120.26 1127.12,-121.89 1138.92,-123.27"/>
<polygon fill="black" stroke="black" points="1138.79,-126.78 1149.13,-124.47 1139.6,-119.83 1138.79,-126.78"/>
</g>
<!-- 140013933902544+&#45;&gt;140013933902544 -->
<g id="edge3" class="edge">
<title>140013933902544+&#45;&gt;140013933902544</title>
<path fill="none" stroke="black" d="M738.44,-100.5C745.81,-100.5 754.42,-100.5 763.84,-100.5"/>
<polygon fill="black" stroke="black" points="763.94,-104 773.94,-100.5 763.94,-97 763.94,-104"/>
</g>
<!-- 140013933902608 -->
<g id="node10" class="node">
<title>140013933902608</title>
<polygon fill="none" stroke="black" points="1239,-109.5 1239,-145.5 1471,-145.5 1471,-109.5 1239,-109.5"/>
<text text-anchor="middle" x="1252" y="-123.8" font-family="Times,serif" font-size="14.00">n</text>
<polyline fill="none" stroke="black" points="1265,-109.5 1265,-145.5 "/>
<text text-anchor="middle" x="1316" y="-123.8" font-family="Times,serif" font-size="14.00">data 0.8814</text>
<polyline fill="none" stroke="black" points="1367,-109.5 1367,-145.5 "/>
<text text-anchor="middle" x="1419" y="-123.8" font-family="Times,serif" font-size="14.00">grad 0.0000</text>
</g>
<!-- 140013933902608+&#45;&gt;140013933902608 -->
<g id="edge4" class="edge">
<title>140013933902608+&#45;&gt;140013933902608</title>
<path fill="none" stroke="black" d="M1203.12,-127.5C1210.53,-127.5 1219.14,-127.5 1228.4,-127.5"/>
<polygon fill="black" stroke="black" points="1228.69,-131 1238.69,-127.5 1228.69,-124 1228.69,-131"/>
</g>
<!-- 140013933902672 -->
<g id="node12" class="node">
<title>140013933902672</title>
<polygon fill="none" stroke="black" points="2.5,-110.5 2.5,-146.5 246.5,-146.5 246.5,-110.5 2.5,-110.5"/>
<text text-anchor="middle" x="21.5" y="-124.8" font-family="Times,serif" font-size="14.00">w2</text>
<polyline fill="none" stroke="black" points="40.5,-110.5 40.5,-146.5 "/>
<text text-anchor="middle" x="91.5" y="-124.8" font-family="Times,serif" font-size="14.00">data 1.0000</text>
<polyline fill="none" stroke="black" points="142.5,-110.5 142.5,-146.5 "/>
<text text-anchor="middle" x="194.5" y="-124.8" font-family="Times,serif" font-size="14.00">grad 0.0000</text>
</g>
<!-- 140013933902672&#45;&gt;140013933902992* -->
<g id="edge10" class="edge">
<title>140013933902672&#45;&gt;140013933902992*</title>
<path fill="none" stroke="black" d="M246.64,-128.5C256.7,-128.5 266.26,-128.5 274.79,-128.5"/>
<polygon fill="black" stroke="black" points="275,-132 285,-128.5 275,-125 275,-132"/>
</g>
<!-- 140013933902800 -->
<g id="node13" class="node">
<title>140013933902800</title>
<polygon fill="none" stroke="black" points="827.5,-137.5 827.5,-173.5 1059.5,-173.5 1059.5,-137.5 827.5,-137.5"/>
<text text-anchor="middle" x="840.5" y="-151.8" font-family="Times,serif" font-size="14.00">b</text>
<polyline fill="none" stroke="black" points="853.5,-137.5 853.5,-173.5 "/>
<text text-anchor="middle" x="904.5" y="-151.8" font-family="Times,serif" font-size="14.00">data 6.8814</text>
<polyline fill="none" stroke="black" points="955.5,-137.5 955.5,-173.5 "/>
<text text-anchor="middle" x="1007.5" y="-151.8" font-family="Times,serif" font-size="14.00">grad 0.0000</text>
</g>
<!-- 140013933902800&#45;&gt;140013933902608+ -->
<g id="edge6" class="edge">
<title>140013933902800&#45;&gt;140013933902608+</title>
<path fill="none" stroke="black" d="M1059.75,-141.5C1088.57,-138 1117.4,-134.5 1139.01,-131.87"/>
<polygon fill="black" stroke="black" points="1139.5,-135.34 1149.01,-130.66 1138.66,-128.39 1139.5,-135.34"/>
</g>
</g>
</svg>
