<?xml version="1.0" encoding="UTF-8" standalone="no"?>
<!DOCTYPE svg PUBLIC "-//W3C//DTD SVG 1.1//EN"
 "http://www.w3.org/Graphics/SVG/1.1/DTD/svg11.dtd">
<!-- Generated by graphviz version 2.43.0 (0)
 -->
<!-- Title: %3 Pages: 1 -->
<svg width="3431pt" height="210pt"
 viewBox="0.00 0.00 3430.60 210.00" xmlns="http://www.w3.org/2000/svg" xmlns:xlink="http://www.w3.org/1999/xlink">
<g id="graph0" class="graph" transform="scale(1 1) rotate(0) translate(4 206)">
<title>%3</title>
<polygon fill="white" stroke="transparent" points="-4,4 -4,-206 3426.6,-206 3426.6,4 -4,4"/>
<!-- 140013950711312 -->
<g id="node1" class="node">
<title>140013950711312</title>
<polygon fill="none" stroke="black" points="2575.6,-53.5 2575.6,-89.5 2802.6,-89.5 2802.6,-53.5 2575.6,-53.5"/>
<text text-anchor="middle" x="2586.1" y="-67.8" font-family="Times,serif" font-size="14.00"> </text>
<polyline fill="none" stroke="black" points="2596.6,-53.5 2596.6,-89.5 "/>
<text text-anchor="middle" x="2647.6" y="-67.8" font-family="Times,serif" font-size="14.00">data 4.8284</text>
<polyline fill="none" stroke="black" points="2698.6,-53.5 2698.6,-89.5 "/>
<text text-anchor="middle" x="2750.6" y="-67.8" font-family="Times,serif" font-size="14.00">grad 0.1464</text>
</g>
<!-- 140013950712208* -->
<g id="node26" class="node">
<title>140013950712208*</title>
<ellipse fill="none" stroke="black" cx="3128.6" cy="-98.5" rx="27" ry="18"/>
<text text-anchor="middle" x="3128.6" y="-94.8" font-family="Times,serif" font-size="14.00">*</text>
</g>
<!-- 140013950711312&#45;&gt;140013950712208* -->
<g id="edge14" class="edge">
<title>140013950711312&#45;&gt;140013950712208*</title>
<path fill="none" stroke="black" d="M2802.76,-78.45C2898.02,-84.33 3028.68,-92.4 3091.28,-96.26"/>
<polygon fill="black" stroke="black" points="3091.24,-99.76 3101.44,-96.89 3091.68,-92.78 3091.24,-99.76"/>
</g>
<!-- 140013950711312+ -->
<g id="node2" class="node">
<title>140013950711312+</title>
<ellipse fill="none" stroke="black" cx="2245.6" cy="-71.5" rx="27" ry="18"/>
<text text-anchor="middle" x="2245.6" y="-67.8" font-family="Times,serif" font-size="14.00">+</text>
</g>
<!-- 140013950711312+&#45;&gt;140013950711312 -->
<g id="edge1" class="edge">
<title>140013950711312+&#45;&gt;140013950711312</title>
<path fill="none" stroke="black" d="M2272.89,-71.5C2329.16,-71.5 2464.31,-71.5 2565.23,-71.5"/>
<polygon fill="black" stroke="black" points="2565.5,-75 2575.5,-71.5 2565.5,-68 2565.5,-75"/>
</g>
<!-- 140013950608400 -->
<g id="node3" class="node">
<title>140013950608400</title>
<polygon fill="none" stroke="black" points="375,-110.5 375,-146.5 648,-146.5 648,-110.5 375,-110.5"/>
<text text-anchor="middle" x="406" y="-124.8" font-family="Times,serif" font-size="14.00">x1*w1</text>
<polyline fill="none" stroke="black" points="437,-110.5 437,-146.5 "/>
<text text-anchor="middle" x="490.5" y="-124.8" font-family="Times,serif" font-size="14.00">data &#45;6.0000</text>
<polyline fill="none" stroke="black" points="544,-110.5 544,-146.5 "/>
<text text-anchor="middle" x="596" y="-124.8" font-family="Times,serif" font-size="14.00">grad 0.5000</text>
</g>
<!-- 140013950710224+ -->
<g id="node28" class="node">
<title>140013950710224+</title>
<ellipse fill="none" stroke="black" cx="711" cy="-100.5" rx="27" ry="18"/>
<text text-anchor="middle" x="711" y="-96.8" font-family="Times,serif" font-size="14.00">+</text>
</g>
<!-- 140013950608400&#45;&gt;140013950710224+ -->
<g id="edge21" class="edge">
<title>140013950608400&#45;&gt;140013950710224+</title>
<path fill="none" stroke="black" d="M639.53,-110.49C652.09,-108.71 663.99,-107.02 674.3,-105.56"/>
<polygon fill="black" stroke="black" points="675.03,-108.99 684.44,-104.12 674.05,-102.06 675.03,-108.99"/>
</g>
<!-- 140013950608400* -->
<g id="node4" class="node">
<title>140013950608400*</title>
<ellipse fill="none" stroke="black" cx="312" cy="-128.5" rx="27" ry="18"/>
<text text-anchor="middle" x="312" y="-124.8" font-family="Times,serif" font-size="14.00">*</text>
</g>
<!-- 140013950608400*&#45;&gt;140013950608400 -->
<g id="edge2" class="edge">
<title>140013950608400*&#45;&gt;140013950608400</title>
<path fill="none" stroke="black" d="M339.23,-128.5C346.7,-128.5 355.41,-128.5 364.87,-128.5"/>
<polygon fill="black" stroke="black" points="364.98,-132 374.98,-128.5 364.98,-125 364.98,-132"/>
</g>
<!-- 140013950709840 -->
<g id="node5" class="node">
<title>140013950709840</title>
<polygon fill="none" stroke="black" points="377.5,-55.5 377.5,-91.5 645.5,-91.5 645.5,-55.5 377.5,-55.5"/>
<text text-anchor="middle" x="408.5" y="-69.8" font-family="Times,serif" font-size="14.00">x2*w2</text>
<polyline fill="none" stroke="black" points="439.5,-55.5 439.5,-91.5 "/>
<text text-anchor="middle" x="490.5" y="-69.8" font-family="Times,serif" font-size="14.00">data 0.0000</text>
<polyline fill="none" stroke="black" points="541.5,-55.5 541.5,-91.5 "/>
<text text-anchor="middle" x="593.5" y="-69.8" font-family="Times,serif" font-size="14.00">grad 0.5000</text>
</g>
<!-- 140013950709840&#45;&gt;140013950710224+ -->
<g id="edge16" class="edge">
<title>140013950709840&#45;&gt;140013950710224+</title>
<path fill="none" stroke="black" d="M644.24,-91.51C655.12,-93 665.4,-94.4 674.45,-95.64"/>
<polygon fill="black" stroke="black" points="674.11,-99.13 684.49,-97.01 675.05,-92.19 674.11,-99.13"/>
</g>
<!-- 140013950709840* -->
<g id="node6" class="node">
<title>140013950709840*</title>
<ellipse fill="none" stroke="black" cx="312" cy="-73.5" rx="27" ry="18"/>
<text text-anchor="middle" x="312" y="-69.8" font-family="Times,serif" font-size="14.00">*</text>
</g>
<!-- 140013950709840*&#45;&gt;140013950709840 -->
<g id="edge3" class="edge">
<title>140013950709840*&#45;&gt;140013950709840</title>
<path fill="none" stroke="black" d="M339.23,-73.5C347.26,-73.5 356.72,-73.5 366.99,-73.5"/>
<polygon fill="black" stroke="black" points="367.08,-77 377.08,-73.5 367.08,-70 367.08,-77"/>
</g>
<!-- 140013950711376 -->
<g id="node7" class="node">
<title>140013950711376</title>
<polygon fill="none" stroke="black" points="1950.6,-26.5 1950.6,-62.5 2182.6,-62.5 2182.6,-26.5 1950.6,-26.5"/>
<text text-anchor="middle" x="1961.1" y="-40.8" font-family="Times,serif" font-size="14.00"> </text>
<polyline fill="none" stroke="black" points="1971.6,-26.5 1971.6,-62.5 "/>
<text text-anchor="middle" x="2025.1" y="-40.8" font-family="Times,serif" font-size="14.00">data &#45;1.0000</text>
<polyline fill="none" stroke="black" points="2078.6,-26.5 2078.6,-62.5 "/>
<text text-anchor="middle" x="2130.6" y="-40.8" font-family="Times,serif" font-size="14.00">grad 0.1464</text>
</g>
<!-- 140013950711376&#45;&gt;140013950711312+ -->
<g id="edge24" class="edge">
<title>140013950711376&#45;&gt;140013950711312+</title>
<path fill="none" stroke="black" d="M2182.69,-62.06C2192.05,-63.49 2200.98,-64.85 2209,-66.07"/>
<polygon fill="black" stroke="black" points="2208.55,-69.54 2218.96,-67.59 2209.61,-62.62 2208.55,-69.54"/>
</g>
<!-- 140013950711888 -->
<g id="node8" class="node">
<title>140013950711888</title>
<polygon fill="none" stroke="black" points="1951.1,-136.5 1951.1,-172.5 2182.1,-172.5 2182.1,-136.5 1951.1,-136.5"/>
<text text-anchor="middle" x="1961.6" y="-150.8" font-family="Times,serif" font-size="14.00"> </text>
<polyline fill="none" stroke="black" points="1972.1,-136.5 1972.1,-172.5 "/>
<text text-anchor="middle" x="2023.1" y="-150.8" font-family="Times,serif" font-size="14.00">data 1.0000</text>
<polyline fill="none" stroke="black" points="2074.1,-136.5 2074.1,-172.5 "/>
<text text-anchor="middle" x="2128.1" y="-150.8" font-family="Times,serif" font-size="14.00">grad &#45;0.1036</text>
</g>
<!-- 140013950711952+ -->
<g id="node12" class="node">
<title>140013950711952+</title>
<ellipse fill="none" stroke="black" cx="2245.6" cy="-126.5" rx="27" ry="18"/>
<text text-anchor="middle" x="2245.6" y="-122.8" font-family="Times,serif" font-size="14.00">+</text>
</g>
<!-- 140013950711888&#45;&gt;140013950711952+ -->
<g id="edge13" class="edge">
<title>140013950711888&#45;&gt;140013950711952+</title>
<path fill="none" stroke="black" d="M2181.69,-136.45C2191.48,-134.9 2200.8,-133.43 2209.14,-132.11"/>
<polygon fill="black" stroke="black" points="2209.79,-135.55 2219.12,-130.53 2208.69,-128.64 2209.79,-135.55"/>
</g>
<!-- 140013950609552 -->
<g id="node9" class="node">
<title>140013950609552</title>
<polygon fill="none" stroke="black" points="4.5,-55.5 4.5,-91.5 244.5,-91.5 244.5,-55.5 4.5,-55.5"/>
<text text-anchor="middle" x="21.5" y="-69.8" font-family="Times,serif" font-size="14.00">x2</text>
<polyline fill="none" stroke="black" points="38.5,-55.5 38.5,-91.5 "/>
<text text-anchor="middle" x="89.5" y="-69.8" font-family="Times,serif" font-size="14.00">data 0.0000</text>
<polyline fill="none" stroke="black" points="140.5,-55.5 140.5,-91.5 "/>
<text text-anchor="middle" x="192.5" y="-69.8" font-family="Times,serif" font-size="14.00">grad 0.5000</text>
</g>
<!-- 140013950609552&#45;&gt;140013950709840* -->
<g id="edge12" class="edge">
<title>140013950609552&#45;&gt;140013950709840*</title>
<path fill="none" stroke="black" d="M244.55,-73.5C255.31,-73.5 265.54,-73.5 274.62,-73.5"/>
<polygon fill="black" stroke="black" points="274.7,-77 284.7,-73.5 274.7,-70 274.7,-77"/>
</g>
<!-- 140013950609040 -->
<g id="node10" class="node">
<title>140013950609040</title>
<polygon fill="none" stroke="black" points="2.5,-0.5 2.5,-36.5 246.5,-36.5 246.5,-0.5 2.5,-0.5"/>
<text text-anchor="middle" x="21.5" y="-14.8" font-family="Times,serif" font-size="14.00">w2</text>
<polyline fill="none" stroke="black" points="40.5,-0.5 40.5,-36.5 "/>
<text text-anchor="middle" x="91.5" y="-14.8" font-family="Times,serif" font-size="14.00">data 1.0000</text>
<polyline fill="none" stroke="black" points="142.5,-0.5 142.5,-36.5 "/>
<text text-anchor="middle" x="194.5" y="-14.8" font-family="Times,serif" font-size="14.00">grad 0.0000</text>
</g>
<!-- 140013950609040&#45;&gt;140013950709840* -->
<g id="edge18" class="edge">
<title>140013950609040&#45;&gt;140013950709840*</title>
<path fill="none" stroke="black" d="M218.13,-36.54C228.63,-39.23 239.1,-42.22 249,-45.5 259.71,-49.04 271.05,-53.84 281.07,-58.46"/>
<polygon fill="black" stroke="black" points="279.67,-61.67 290.2,-62.79 282.67,-55.34 279.67,-61.67"/>
</g>
<!-- 140013950711952 -->
<g id="node11" class="node">
<title>140013950711952</title>
<polygon fill="none" stroke="black" points="2308.6,-108.5 2308.6,-144.5 2539.6,-144.5 2539.6,-108.5 2308.6,-108.5"/>
<text text-anchor="middle" x="2319.1" y="-122.8" font-family="Times,serif" font-size="14.00"> </text>
<polyline fill="none" stroke="black" points="2329.6,-108.5 2329.6,-144.5 "/>
<text text-anchor="middle" x="2380.6" y="-122.8" font-family="Times,serif" font-size="14.00">data 6.8284</text>
<polyline fill="none" stroke="black" points="2431.6,-108.5 2431.6,-144.5 "/>
<text text-anchor="middle" x="2485.6" y="-122.8" font-family="Times,serif" font-size="14.00">grad &#45;0.1036</text>
</g>
<!-- 140013950710544**&#45;1 -->
<g id="node22" class="node">
<title>140013950710544**&#45;1</title>
<ellipse fill="none" stroke="black" cx="2689.1" cy="-126.5" rx="28.7" ry="18"/>
<text text-anchor="middle" x="2689.1" y="-122.8" font-family="Times,serif" font-size="14.00">**&#45;1</text>
</g>
<!-- 140013950711952&#45;&gt;140013950710544**&#45;1 -->
<g id="edge27" class="edge">
<title>140013950711952&#45;&gt;140013950710544**&#45;1</title>
<path fill="none" stroke="black" d="M2539.69,-126.5C2579.38,-126.5 2621.17,-126.5 2650.25,-126.5"/>
<polygon fill="black" stroke="black" points="2650.37,-130 2660.37,-126.5 2650.37,-123 2650.37,-130"/>
</g>
<!-- 140013950711952+&#45;&gt;140013950711952 -->
<g id="edge4" class="edge">
<title>140013950711952+&#45;&gt;140013950711952</title>
<path fill="none" stroke="black" d="M2272.64,-126.5C2280.18,-126.5 2288.96,-126.5 2298.41,-126.5"/>
<polygon fill="black" stroke="black" points="2298.49,-130 2308.49,-126.5 2298.49,-123 2298.49,-130"/>
</g>
<!-- 140013950710480 -->
<g id="node13" class="node">
<title>140013950710480</title>
<polygon fill="none" stroke="black" points="1239,-109.5 1239,-145.5 1471,-145.5 1471,-109.5 1239,-109.5"/>
<text text-anchor="middle" x="1252" y="-123.8" font-family="Times,serif" font-size="14.00">n</text>
<polyline fill="none" stroke="black" points="1265,-109.5 1265,-145.5 "/>
<text text-anchor="middle" x="1316" y="-123.8" font-family="Times,serif" font-size="14.00">data 0.8814</text>
<polyline fill="none" stroke="black" points="1367,-109.5 1367,-145.5 "/>
<text text-anchor="middle" x="1419" y="-123.8" font-family="Times,serif" font-size="14.00">grad 0.5000</text>
</g>
<!-- 140013950711120* -->
<g id="node24" class="node">
<title>140013950711120*</title>
<ellipse fill="none" stroke="black" cx="1534" cy="-99.5" rx="27" ry="18"/>
<text text-anchor="middle" x="1534" y="-95.8" font-family="Times,serif" font-size="14.00">*</text>
</g>
<!-- 140013950710480&#45;&gt;140013950711120* -->
<g id="edge28" class="edge">
<title>140013950710480&#45;&gt;140013950711120*</title>
<path fill="none" stroke="black" d="M1470.1,-109.45C1479.88,-107.9 1489.21,-106.43 1497.54,-105.11"/>
<polygon fill="black" stroke="black" points="1498.19,-108.55 1507.52,-103.53 1497.1,-101.64 1498.19,-108.55"/>
</g>
<!-- 140013950710480+ -->
<g id="node14" class="node">
<title>140013950710480+</title>
<ellipse fill="none" stroke="black" cx="1176" cy="-127.5" rx="27" ry="18"/>
<text text-anchor="middle" x="1176" y="-123.8" font-family="Times,serif" font-size="14.00">+</text>
</g>
<!-- 140013950710480+&#45;&gt;140013950710480 -->
<g id="edge5" class="edge">
<title>140013950710480+&#45;&gt;140013950710480</title>
<path fill="none" stroke="black" d="M1203.12,-127.5C1210.53,-127.5 1219.14,-127.5 1228.4,-127.5"/>
<polygon fill="black" stroke="black" points="1228.69,-131 1238.69,-127.5 1228.69,-124 1228.69,-131"/>
</g>
<!-- 140013950607760 -->
<g id="node15" class="node">
<title>140013950607760</title>
<polygon fill="none" stroke="black" points="827.5,-137.5 827.5,-173.5 1059.5,-173.5 1059.5,-137.5 827.5,-137.5"/>
<text text-anchor="middle" x="840.5" y="-151.8" font-family="Times,serif" font-size="14.00">b</text>
<polyline fill="none" stroke="black" points="853.5,-137.5 853.5,-173.5 "/>
<text text-anchor="middle" x="904.5" y="-151.8" font-family="Times,serif" font-size="14.00">data 6.8814</text>
<polyline fill="none" stroke="black" points="955.5,-137.5 955.5,-173.5 "/>
<text text-anchor="middle" x="1007.5" y="-151.8" font-family="Times,serif" font-size="14.00">grad 0.5000</text>
</g>
<!-- 140013950607760&#45;&gt;140013950710480+ -->
<g id="edge20" class="edge">
<title>140013950607760&#45;&gt;140013950710480+</title>
<path fill="none" stroke="black" d="M1059.75,-141.5C1088.57,-138 1117.4,-134.5 1139.01,-131.87"/>
<polygon fill="black" stroke="black" points="1139.5,-135.34 1149.01,-130.66 1138.66,-128.39 1139.5,-135.34"/>
</g>
<!-- 140013950608272 -->
<g id="node16" class="node">
<title>140013950608272</title>
<polygon fill="none" stroke="black" points="2.5,-165.5 2.5,-201.5 246.5,-201.5 246.5,-165.5 2.5,-165.5"/>
<text text-anchor="middle" x="19.5" y="-179.8" font-family="Times,serif" font-size="14.00">x1</text>
<polyline fill="none" stroke="black" points="36.5,-165.5 36.5,-201.5 "/>
<text text-anchor="middle" x="87.5" y="-179.8" font-family="Times,serif" font-size="14.00">data 2.0000</text>
<polyline fill="none" stroke="black" points="138.5,-165.5 138.5,-201.5 "/>
<text text-anchor="middle" x="192.5" y="-179.8" font-family="Times,serif" font-size="14.00">grad &#45;1.5000</text>
</g>
<!-- 140013950608272&#45;&gt;140013950608400* -->
<g id="edge23" class="edge">
<title>140013950608272&#45;&gt;140013950608400*</title>
<path fill="none" stroke="black" d="M218.13,-165.46C228.63,-162.77 239.1,-159.78 249,-156.5 259.71,-152.96 271.05,-148.16 281.07,-143.54"/>
<polygon fill="black" stroke="black" points="282.67,-146.66 290.2,-139.21 279.67,-140.33 282.67,-146.66"/>
</g>
<!-- 140013950609104 -->
<g id="node17" class="node">
<title>140013950609104</title>
<polygon fill="none" stroke="black" points="0,-110.5 0,-146.5 249,-146.5 249,-110.5 0,-110.5"/>
<text text-anchor="middle" x="19" y="-124.8" font-family="Times,serif" font-size="14.00">w1</text>
<polyline fill="none" stroke="black" points="38,-110.5 38,-146.5 "/>
<text text-anchor="middle" x="91.5" y="-124.8" font-family="Times,serif" font-size="14.00">data &#45;3.0000</text>
<polyline fill="none" stroke="black" points="145,-110.5 145,-146.5 "/>
<text text-anchor="middle" x="197" y="-124.8" font-family="Times,serif" font-size="14.00">grad 1.0000</text>
</g>
<!-- 140013950609104&#45;&gt;140013950608400* -->
<g id="edge11" class="edge">
<title>140013950609104&#45;&gt;140013950608400*</title>
<path fill="none" stroke="black" d="M249.23,-128.5C258.37,-128.5 267.05,-128.5 274.87,-128.5"/>
<polygon fill="black" stroke="black" points="274.95,-132 284.95,-128.5 274.95,-125 274.95,-132"/>
</g>
<!-- 140013950711056 -->
<g id="node18" class="node">
<title>140013950711056</title>
<polygon fill="none" stroke="black" points="1241.5,-54.5 1241.5,-90.5 1468.5,-90.5 1468.5,-54.5 1241.5,-54.5"/>
<text text-anchor="middle" x="1252" y="-68.8" font-family="Times,serif" font-size="14.00"> </text>
<polyline fill="none" stroke="black" points="1262.5,-54.5 1262.5,-90.5 "/>
<text text-anchor="middle" x="1313.5" y="-68.8" font-family="Times,serif" font-size="14.00">data 2.0000</text>
<polyline fill="none" stroke="black" points="1364.5,-54.5 1364.5,-90.5 "/>
<text text-anchor="middle" x="1416.5" y="-68.8" font-family="Times,serif" font-size="14.00">grad 0.2203</text>
</g>
<!-- 140013950711056&#45;&gt;140013950711120* -->
<g id="edge19" class="edge">
<title>140013950711056&#45;&gt;140013950711120*</title>
<path fill="none" stroke="black" d="M1468.6,-89.68C1478.87,-91.24 1488.68,-92.74 1497.4,-94.07"/>
<polygon fill="black" stroke="black" points="1497.05,-97.56 1507.47,-95.61 1498.11,-90.64 1497.05,-97.56"/>
</g>
<!-- 140013950711568 -->
<g id="node19" class="node">
<title>140013950711568</title>
<polygon fill="none" stroke="black" points="1953.1,-81.5 1953.1,-117.5 2180.1,-117.5 2180.1,-81.5 1953.1,-81.5"/>
<text text-anchor="middle" x="1963.6" y="-95.8" font-family="Times,serif" font-size="14.00"> </text>
<polyline fill="none" stroke="black" points="1974.1,-81.5 1974.1,-117.5 "/>
<text text-anchor="middle" x="2025.1" y="-95.8" font-family="Times,serif" font-size="14.00">data 5.8284</text>
<polyline fill="none" stroke="black" points="2076.1,-81.5 2076.1,-117.5 "/>
<text text-anchor="middle" x="2128.1" y="-95.8" font-family="Times,serif" font-size="14.00">grad 0.0429</text>
</g>
<!-- 140013950711568&#45;&gt;140013950711312+ -->
<g id="edge17" class="edge">
<title>140013950711568&#45;&gt;140013950711312+</title>
<path fill="none" stroke="black" d="M2180.19,-81.69C2190.47,-80.06 2200.28,-78.51 2209,-77.13"/>
<polygon fill="black" stroke="black" points="2209.73,-80.56 2219.06,-75.54 2208.64,-73.64 2209.73,-80.56"/>
</g>
<!-- 140013950711568&#45;&gt;140013950711952+ -->
<g id="edge15" class="edge">
<title>140013950711568&#45;&gt;140013950711952+</title>
<path fill="none" stroke="black" d="M2180.19,-116.68C2190.47,-118.24 2200.28,-119.74 2209,-121.07"/>
<polygon fill="black" stroke="black" points="2208.65,-124.56 2219.06,-122.61 2209.7,-117.64 2208.65,-124.56"/>
</g>
<!-- 140013950711568exp -->
<g id="node20" class="node">
<title>140013950711568exp</title>
<ellipse fill="none" stroke="black" cx="1887.3" cy="-99.5" rx="27.1" ry="18"/>
<text text-anchor="middle" x="1887.3" y="-95.8" font-family="Times,serif" font-size="14.00">exp</text>
</g>
<!-- 140013950711568exp&#45;&gt;140013950711568 -->
<g id="edge6" class="edge">
<title>140013950711568exp&#45;&gt;140013950711568</title>
<path fill="none" stroke="black" d="M1914.84,-99.5C1922.97,-99.5 1932.49,-99.5 1942.74,-99.5"/>
<polygon fill="black" stroke="black" points="1942.76,-103 1952.76,-99.5 1942.76,-96 1942.76,-103"/>
</g>
<!-- 140013950710544 -->
<g id="node21" class="node">
<title>140013950710544</title>
<polygon fill="none" stroke="black" points="2838.6,-106.5 2838.6,-142.5 3065.6,-142.5 3065.6,-106.5 2838.6,-106.5"/>
<text text-anchor="middle" x="2849.1" y="-120.8" font-family="Times,serif" font-size="14.00"> </text>
<polyline fill="none" stroke="black" points="2859.6,-106.5 2859.6,-142.5 "/>
<text text-anchor="middle" x="2910.6" y="-120.8" font-family="Times,serif" font-size="14.00">data 0.1464</text>
<polyline fill="none" stroke="black" points="2961.6,-106.5 2961.6,-142.5 "/>
<text text-anchor="middle" x="3013.6" y="-120.8" font-family="Times,serif" font-size="14.00">grad 4.8284</text>
</g>
<!-- 140013950710544&#45;&gt;140013950712208* -->
<g id="edge25" class="edge">
<title>140013950710544&#45;&gt;140013950712208*</title>
<path fill="none" stroke="black" d="M3066.07,-107.67C3075.37,-106.28 3084.23,-104.96 3092.2,-103.77"/>
<polygon fill="black" stroke="black" points="3092.73,-107.23 3102.1,-102.3 3091.7,-100.31 3092.73,-107.23"/>
</g>
<!-- 140013950710544**&#45;1&#45;&gt;140013950710544 -->
<g id="edge7" class="edge">
<title>140013950710544**&#45;1&#45;&gt;140013950710544</title>
<path fill="none" stroke="black" d="M2718.03,-126.29C2744.75,-126.08 2786.99,-125.76 2828.21,-125.44"/>
<polygon fill="black" stroke="black" points="2828.4,-128.94 2838.37,-125.36 2828.35,-121.94 2828.4,-128.94"/>
</g>
<!-- 140013950711120 -->
<g id="node23" class="node">
<title>140013950711120</title>
<polygon fill="none" stroke="black" points="1597,-81.5 1597,-117.5 1824,-117.5 1824,-81.5 1597,-81.5"/>
<text text-anchor="middle" x="1607.5" y="-95.8" font-family="Times,serif" font-size="14.00"> </text>
<polyline fill="none" stroke="black" points="1618,-81.5 1618,-117.5 "/>
<text text-anchor="middle" x="1669" y="-95.8" font-family="Times,serif" font-size="14.00">data 1.7627</text>
<polyline fill="none" stroke="black" points="1720,-81.5 1720,-117.5 "/>
<text text-anchor="middle" x="1772" y="-95.8" font-family="Times,serif" font-size="14.00">grad 0.2500</text>
</g>
<!-- 140013950711120&#45;&gt;140013950711568exp -->
<g id="edge26" class="edge">
<title>140013950711120&#45;&gt;140013950711568exp</title>
<path fill="none" stroke="black" d="M1824.18,-99.5C1833.26,-99.5 1841.95,-99.5 1849.79,-99.5"/>
<polygon fill="black" stroke="black" points="1849.93,-103 1859.93,-99.5 1849.93,-96 1849.93,-103"/>
</g>
<!-- 140013950711120*&#45;&gt;140013950711120 -->
<g id="edge8" class="edge">
<title>140013950711120*&#45;&gt;140013950711120</title>
<path fill="none" stroke="black" d="M1561.12,-99.5C1568.67,-99.5 1577.45,-99.5 1586.9,-99.5"/>
<polygon fill="black" stroke="black" points="1586.95,-103 1596.95,-99.5 1586.95,-96 1586.95,-103"/>
</g>
<!-- 140013950712208 -->
<g id="node25" class="node">
<title>140013950712208</title>
<polygon fill="none" stroke="black" points="3191.6,-80.5 3191.6,-116.5 3422.6,-116.5 3422.6,-80.5 3191.6,-80.5"/>
<text text-anchor="middle" x="3204.1" y="-94.8" font-family="Times,serif" font-size="14.00">o</text>
<polyline fill="none" stroke="black" points="3216.6,-80.5 3216.6,-116.5 "/>
<text text-anchor="middle" x="3267.6" y="-94.8" font-family="Times,serif" font-size="14.00">data 0.7071</text>
<polyline fill="none" stroke="black" points="3318.6,-80.5 3318.6,-116.5 "/>
<text text-anchor="middle" x="3370.6" y="-94.8" font-family="Times,serif" font-size="14.00">grad 1.0000</text>
</g>
<!-- 140013950712208*&#45;&gt;140013950712208 -->
<g id="edge9" class="edge">
<title>140013950712208*&#45;&gt;140013950712208</title>
<path fill="none" stroke="black" d="M3155.64,-98.5C3163.18,-98.5 3171.96,-98.5 3181.41,-98.5"/>
<polygon fill="black" stroke="black" points="3181.49,-102 3191.49,-98.5 3181.49,-95 3181.49,-102"/>
</g>
<!-- 140013950710224 -->
<g id="node27" class="node">
<title>140013950710224</title>
<polygon fill="none" stroke="black" points="774,-82.5 774,-118.5 1113,-118.5 1113,-82.5 774,-82.5"/>
<text text-anchor="middle" x="838" y="-96.8" font-family="Times,serif" font-size="14.00">x1*w1 + x2*w2</text>
<polyline fill="none" stroke="black" points="902,-82.5 902,-118.5 "/>
<text text-anchor="middle" x="955.5" y="-96.8" font-family="Times,serif" font-size="14.00">data &#45;6.0000</text>
<polyline fill="none" stroke="black" points="1009,-82.5 1009,-118.5 "/>
<text text-anchor="middle" x="1061" y="-96.8" font-family="Times,serif" font-size="14.00">grad 0.5000</text>
</g>
<!-- 140013950710224&#45;&gt;140013950710480+ -->
<g id="edge22" class="edge">
<title>140013950710224&#45;&gt;140013950710480+</title>
<path fill="none" stroke="black" d="M1098.25,-118.51C1113.17,-120.26 1127.12,-121.89 1138.92,-123.27"/>
<polygon fill="black" stroke="black" points="1138.79,-126.78 1149.13,-124.47 1139.6,-119.83 1138.79,-126.78"/>
</g>
<!-- 140013950710224+&#45;&gt;140013950710224 -->
<g id="edge10" class="edge">
<title>140013950710224+&#45;&gt;140013950710224</title>
<path fill="none" stroke="black" d="M738.44,-100.5C745.81,-100.5 754.42,-100.5 763.84,-100.5"/>
<polygon fill="black" stroke="black" points="763.94,-104 773.94,-100.5 763.94,-97 763.94,-104"/>
</g>
</g>
</svg>
