<?xml version="1.0" encoding="UTF-8" standalone="no"?>
<!DOCTYPE svg PUBLIC "-//W3C//DTD SVG 1.1//EN"
 "http://www.w3.org/Graphics/SVG/1.1/DTD/svg11.dtd">
<!-- Generated by graphviz version 2.43.0 (0)
 -->
<!-- Title: %3 Pages: 1 -->
<svg width="1846pt" height="210pt"
 viewBox="0.00 0.00 1845.69 210.00" xmlns="http://www.w3.org/2000/svg" xmlns:xlink="http://www.w3.org/1999/xlink">
<g id="graph0" class="graph" transform="scale(1 1) rotate(0) translate(4 206)">
<title>%3</title>
<polygon fill="white" stroke="transparent" points="-4,4 -4,-206 1841.69,-206 1841.69,4 -4,4"/>
<!-- 140013950641680 -->
<g id="node1" class="node">
<title>140013950641680</title>
<polygon fill="none" stroke="black" points="1239,-109.5 1239,-145.5 1471,-145.5 1471,-109.5 1239,-109.5"/>
<text text-anchor="middle" x="1252" y="-123.8" font-family="Times,serif" font-size="14.00">n</text>
<polyline fill="none" stroke="black" points="1265,-109.5 1265,-145.5 "/>
<text text-anchor="middle" x="1316" y="-123.8" font-family="Times,serif" font-size="14.00">data 0.8814</text>
<polyline fill="none" stroke="black" points="1367,-109.5 1367,-145.5 "/>
<text text-anchor="middle" x="1419" y="-123.8" font-family="Times,serif" font-size="14.00">grad 0.5000</text>
</g>
<!-- 140013950641936tanh -->
<g id="node9" class="node">
<title>140013950641936tanh</title>
<ellipse fill="none" stroke="black" cx="1538.85" cy="-127.5" rx="31.7" ry="18"/>
<text text-anchor="middle" x="1538.85" y="-123.8" font-family="Times,serif" font-size="14.00">tanh</text>
</g>
<!-- 140013950641680&#45;&gt;140013950641936tanh -->
<g id="edge11" class="edge">
<title>140013950641680&#45;&gt;140013950641936tanh</title>
<path fill="none" stroke="black" d="M1471.17,-127.5C1480.08,-127.5 1488.66,-127.5 1496.53,-127.5"/>
<polygon fill="black" stroke="black" points="1496.78,-131 1506.78,-127.5 1496.78,-124 1496.78,-131"/>
</g>
<!-- 140013950641680+ -->
<g id="node2" class="node">
<title>140013950641680+</title>
<ellipse fill="none" stroke="black" cx="1176" cy="-127.5" rx="27" ry="18"/>
<text text-anchor="middle" x="1176" y="-123.8" font-family="Times,serif" font-size="14.00">+</text>
</g>
<!-- 140013950641680+&#45;&gt;140013950641680 -->
<g id="edge1" class="edge">
<title>140013950641680+&#45;&gt;140013950641680</title>
<path fill="none" stroke="black" d="M1203.12,-127.5C1210.53,-127.5 1219.14,-127.5 1228.4,-127.5"/>
<polygon fill="black" stroke="black" points="1228.69,-131 1238.69,-127.5 1228.69,-124 1228.69,-131"/>
</g>
<!-- 140013950640656 -->
<g id="node3" class="node">
<title>140013950640656</title>
<polygon fill="none" stroke="black" points="2.5,-165.5 2.5,-201.5 246.5,-201.5 246.5,-165.5 2.5,-165.5"/>
<text text-anchor="middle" x="21.5" y="-179.8" font-family="Times,serif" font-size="14.00">w2</text>
<polyline fill="none" stroke="black" points="40.5,-165.5 40.5,-201.5 "/>
<text text-anchor="middle" x="91.5" y="-179.8" font-family="Times,serif" font-size="14.00">data 1.0000</text>
<polyline fill="none" stroke="black" points="142.5,-165.5 142.5,-201.5 "/>
<text text-anchor="middle" x="194.5" y="-179.8" font-family="Times,serif" font-size="14.00">grad 0.0000</text>
</g>
<!-- 140013950641168* -->
<g id="node5" class="node">
<title>140013950641168*</title>
<ellipse fill="none" stroke="black" cx="312" cy="-128.5" rx="27" ry="18"/>
<text text-anchor="middle" x="312" y="-124.8" font-family="Times,serif" font-size="14.00">*</text>
</g>
<!-- 140013950640656&#45;&gt;140013950641168* -->
<g id="edge14" class="edge">
<title>140013950640656&#45;&gt;140013950641168*</title>
<path fill="none" stroke="black" d="M218.13,-165.46C228.63,-162.77 239.1,-159.78 249,-156.5 259.71,-152.96 271.05,-148.16 281.07,-143.54"/>
<polygon fill="black" stroke="black" points="282.67,-146.66 290.2,-139.21 279.67,-140.33 282.67,-146.66"/>
</g>
<!-- 140013950641168 -->
<g id="node4" class="node">
<title>140013950641168</title>
<polygon fill="none" stroke="black" points="377.5,-110.5 377.5,-146.5 645.5,-146.5 645.5,-110.5 377.5,-110.5"/>
<text text-anchor="middle" x="408.5" y="-124.8" font-family="Times,serif" font-size="14.00">x2*w2</text>
<polyline fill="none" stroke="black" points="439.5,-110.5 439.5,-146.5 "/>
<text text-anchor="middle" x="490.5" y="-124.8" font-family="Times,serif" font-size="14.00">data 0.0000</text>
<polyline fill="none" stroke="black" points="541.5,-110.5 541.5,-146.5 "/>
<text text-anchor="middle" x="593.5" y="-124.8" font-family="Times,serif" font-size="14.00">grad 0.5000</text>
</g>
<!-- 140013950641424+ -->
<g id="node11" class="node">
<title>140013950641424+</title>
<ellipse fill="none" stroke="black" cx="711" cy="-100.5" rx="27" ry="18"/>
<text text-anchor="middle" x="711" y="-96.8" font-family="Times,serif" font-size="14.00">+</text>
</g>
<!-- 140013950641168&#45;&gt;140013950641424+ -->
<g id="edge10" class="edge">
<title>140013950641168&#45;&gt;140013950641424+</title>
<path fill="none" stroke="black" d="M639.53,-110.49C652.09,-108.71 663.99,-107.02 674.3,-105.56"/>
<polygon fill="black" stroke="black" points="675.03,-108.99 684.44,-104.12 674.05,-102.06 675.03,-108.99"/>
</g>
<!-- 140013950641168*&#45;&gt;140013950641168 -->
<g id="edge2" class="edge">
<title>140013950641168*&#45;&gt;140013950641168</title>
<path fill="none" stroke="black" d="M339.23,-128.5C347.26,-128.5 356.72,-128.5 366.99,-128.5"/>
<polygon fill="black" stroke="black" points="367.08,-132 377.08,-128.5 367.08,-125 367.08,-132"/>
</g>
<!-- 140013950640784 -->
<g id="node6" class="node">
<title>140013950640784</title>
<polygon fill="none" stroke="black" points="827.5,-137.5 827.5,-173.5 1059.5,-173.5 1059.5,-137.5 827.5,-137.5"/>
<text text-anchor="middle" x="840.5" y="-151.8" font-family="Times,serif" font-size="14.00">b</text>
<polyline fill="none" stroke="black" points="853.5,-137.5 853.5,-173.5 "/>
<text text-anchor="middle" x="904.5" y="-151.8" font-family="Times,serif" font-size="14.00">data 6.8814</text>
<polyline fill="none" stroke="black" points="955.5,-137.5 955.5,-173.5 "/>
<text text-anchor="middle" x="1007.5" y="-151.8" font-family="Times,serif" font-size="14.00">grad 0.5000</text>
</g>
<!-- 140013950640784&#45;&gt;140013950641680+ -->
<g id="edge8" class="edge">
<title>140013950640784&#45;&gt;140013950641680+</title>
<path fill="none" stroke="black" d="M1059.75,-141.5C1088.57,-138 1117.4,-134.5 1139.01,-131.87"/>
<polygon fill="black" stroke="black" points="1139.5,-135.34 1149.01,-130.66 1138.66,-128.39 1139.5,-135.34"/>
</g>
<!-- 140013950640336 -->
<g id="node7" class="node">
<title>140013950640336</title>
<polygon fill="none" stroke="black" points="4.5,-110.5 4.5,-146.5 244.5,-146.5 244.5,-110.5 4.5,-110.5"/>
<text text-anchor="middle" x="21.5" y="-124.8" font-family="Times,serif" font-size="14.00">x2</text>
<polyline fill="none" stroke="black" points="38.5,-110.5 38.5,-146.5 "/>
<text text-anchor="middle" x="89.5" y="-124.8" font-family="Times,serif" font-size="14.00">data 0.0000</text>
<polyline fill="none" stroke="black" points="140.5,-110.5 140.5,-146.5 "/>
<text text-anchor="middle" x="192.5" y="-124.8" font-family="Times,serif" font-size="14.00">grad 0.5000</text>
</g>
<!-- 140013950640336&#45;&gt;140013950641168* -->
<g id="edge6" class="edge">
<title>140013950640336&#45;&gt;140013950641168*</title>
<path fill="none" stroke="black" d="M244.55,-128.5C255.31,-128.5 265.54,-128.5 274.62,-128.5"/>
<polygon fill="black" stroke="black" points="274.7,-132 284.7,-128.5 274.7,-125 274.7,-132"/>
</g>
<!-- 140013950641936 -->
<g id="node8" class="node">
<title>140013950641936</title>
<polygon fill="none" stroke="black" points="1606.69,-109.5 1606.69,-145.5 1837.69,-145.5 1837.69,-109.5 1606.69,-109.5"/>
<text text-anchor="middle" x="1619.19" y="-123.8" font-family="Times,serif" font-size="14.00">o</text>
<polyline fill="none" stroke="black" points="1631.69,-109.5 1631.69,-145.5 "/>
<text text-anchor="middle" x="1682.69" y="-123.8" font-family="Times,serif" font-size="14.00">data 0.7071</text>
<polyline fill="none" stroke="black" points="1733.69,-109.5 1733.69,-145.5 "/>
<text text-anchor="middle" x="1785.69" y="-123.8" font-family="Times,serif" font-size="14.00">grad 1.0000</text>
</g>
<!-- 140013950641936tanh&#45;&gt;140013950641936 -->
<g id="edge3" class="edge">
<title>140013950641936tanh&#45;&gt;140013950641936</title>
<path fill="none" stroke="black" d="M1571.02,-127.5C1578.61,-127.5 1587.19,-127.5 1596.31,-127.5"/>
<polygon fill="black" stroke="black" points="1596.4,-131 1606.4,-127.5 1596.4,-124 1596.4,-131"/>
</g>
<!-- 140013950641424 -->
<g id="node10" class="node">
<title>140013950641424</title>
<polygon fill="none" stroke="black" points="774,-82.5 774,-118.5 1113,-118.5 1113,-82.5 774,-82.5"/>
<text text-anchor="middle" x="838" y="-96.8" font-family="Times,serif" font-size="14.00">x1*w1 + x2*w2</text>
<polyline fill="none" stroke="black" points="902,-82.5 902,-118.5 "/>
<text text-anchor="middle" x="955.5" y="-96.8" font-family="Times,serif" font-size="14.00">data &#45;6.0000</text>
<polyline fill="none" stroke="black" points="1009,-82.5 1009,-118.5 "/>
<text text-anchor="middle" x="1061" y="-96.8" font-family="Times,serif" font-size="14.00">grad 0.5000</text>
</g>
<!-- 140013950641424&#45;&gt;140013950641680+ -->
<g id="edge12" class="edge">
<title>140013950641424&#45;&gt;140013950641680+</title>
<path fill="none" stroke="black" d="M1098.25,-118.51C1113.17,-120.26 1127.12,-121.89 1138.92,-123.27"/>
<polygon fill="black" stroke="black" points="1138.79,-126.78 1149.13,-124.47 1139.6,-119.83 1138.79,-126.78"/>
</g>
<!-- 140013950641424+&#45;&gt;140013950641424 -->
<g id="edge4" class="edge">
<title>140013950641424+&#45;&gt;140013950641424</title>
<path fill="none" stroke="black" d="M738.44,-100.5C745.81,-100.5 754.42,-100.5 763.84,-100.5"/>
<polygon fill="black" stroke="black" points="763.94,-104 773.94,-100.5 763.94,-97 763.94,-104"/>
</g>
<!-- 140013950640400 -->
<g id="node12" class="node">
<title>140013950640400</title>
<polygon fill="none" stroke="black" points="2.5,-55.5 2.5,-91.5 246.5,-91.5 246.5,-55.5 2.5,-55.5"/>
<text text-anchor="middle" x="19.5" y="-69.8" font-family="Times,serif" font-size="14.00">x1</text>
<polyline fill="none" stroke="black" points="36.5,-55.5 36.5,-91.5 "/>
<text text-anchor="middle" x="87.5" y="-69.8" font-family="Times,serif" font-size="14.00">data 2.0000</text>
<polyline fill="none" stroke="black" points="138.5,-55.5 138.5,-91.5 "/>
<text text-anchor="middle" x="192.5" y="-69.8" font-family="Times,serif" font-size="14.00">grad &#45;1.5000</text>
</g>
<!-- 140013950640592* -->
<g id="node15" class="node">
<title>140013950640592*</title>
<ellipse fill="none" stroke="black" cx="312" cy="-73.5" rx="27" ry="18"/>
<text text-anchor="middle" x="312" y="-69.8" font-family="Times,serif" font-size="14.00">*</text>
</g>
<!-- 140013950640400&#45;&gt;140013950640592* -->
<g id="edge9" class="edge">
<title>140013950640400&#45;&gt;140013950640592*</title>
<path fill="none" stroke="black" d="M246.64,-73.5C256.7,-73.5 266.26,-73.5 274.79,-73.5"/>
<polygon fill="black" stroke="black" points="275,-77 285,-73.5 275,-70 275,-77"/>
</g>
<!-- 140013950640464 -->
<g id="node13" class="node">
<title>140013950640464</title>
<polygon fill="none" stroke="black" points="0,-0.5 0,-36.5 249,-36.5 249,-0.5 0,-0.5"/>
<text text-anchor="middle" x="19" y="-14.8" font-family="Times,serif" font-size="14.00">w1</text>
<polyline fill="none" stroke="black" points="38,-0.5 38,-36.5 "/>
<text text-anchor="middle" x="91.5" y="-14.8" font-family="Times,serif" font-size="14.00">data &#45;3.0000</text>
<polyline fill="none" stroke="black" points="145,-0.5 145,-36.5 "/>
<text text-anchor="middle" x="197" y="-14.8" font-family="Times,serif" font-size="14.00">grad 1.0000</text>
</g>
<!-- 140013950640464&#45;&gt;140013950640592* -->
<g id="edge13" class="edge">
<title>140013950640464&#45;&gt;140013950640592*</title>
<path fill="none" stroke="black" d="M214.42,-36.55C226.15,-39.54 237.93,-42.87 249,-46.5 259.46,-49.93 270.57,-54.47 280.46,-58.84"/>
<polygon fill="black" stroke="black" points="279.31,-62.17 289.87,-63.12 282.21,-55.79 279.31,-62.17"/>
</g>
<!-- 140013950640592 -->
<g id="node14" class="node">
<title>140013950640592</title>
<polygon fill="none" stroke="black" points="375,-55.5 375,-91.5 648,-91.5 648,-55.5 375,-55.5"/>
<text text-anchor="middle" x="406" y="-69.8" font-family="Times,serif" font-size="14.00">x1*w1</text>
<polyline fill="none" stroke="black" points="437,-55.5 437,-91.5 "/>
<text text-anchor="middle" x="490.5" y="-69.8" font-family="Times,serif" font-size="14.00">data &#45;6.0000</text>
<polyline fill="none" stroke="black" points="544,-55.5 544,-91.5 "/>
<text text-anchor="middle" x="596" y="-69.8" font-family="Times,serif" font-size="14.00">grad 0.5000</text>
</g>
<!-- 140013950640592&#45;&gt;140013950641424+ -->
<g id="edge7" class="edge">
<title>140013950640592&#45;&gt;140013950641424+</title>
<path fill="none" stroke="black" d="M644.24,-91.51C655.12,-93 665.4,-94.4 674.45,-95.64"/>
<polygon fill="black" stroke="black" points="674.11,-99.13 684.49,-97.01 675.05,-92.19 674.11,-99.13"/>
</g>
<!-- 140013950640592*&#45;&gt;140013950640592 -->
<g id="edge5" class="edge">
<title>140013950640592*&#45;&gt;140013950640592</title>
<path fill="none" stroke="black" d="M339.23,-73.5C346.7,-73.5 355.41,-73.5 364.87,-73.5"/>
<polygon fill="black" stroke="black" points="364.98,-77 374.98,-73.5 364.98,-70 364.98,-77"/>
</g>
</g>
</svg>
