<?xml version="1.0" encoding="UTF-8" standalone="no"?>
<!DOCTYPE svg PUBLIC "-//W3C//DTD SVG 1.1//EN"
 "http://www.w3.org/Graphics/SVG/1.1/DTD/svg11.dtd">
<!-- Generated by graphviz version 2.43.0 (0)
 -->
<!-- Title: %3 Pages: 1 -->
<svg width="1339pt" height="154pt"
 viewBox="0.00 0.00 1339.00 154.00" xmlns="http://www.w3.org/2000/svg" xmlns:xlink="http://www.w3.org/1999/xlink">
<g id="graph0" class="graph" transform="scale(1 1) rotate(0) translate(4 150)">
<title>%3</title>
<polygon fill="white" stroke="transparent" points="-4,4 -4,-150 1335,-150 1335,4 -4,4"/>
<!-- 140012270732304 -->
<g id="node1" class="node">
<title>140012270732304</title>
<polygon fill="none" stroke="black" points="733.5,-109.5 733.5,-145.5 966.5,-145.5 966.5,-109.5 733.5,-109.5"/>
<text text-anchor="middle" x="744.5" y="-123.8" font-family="Times,serif" font-size="14.00">f</text>
<polyline fill="none" stroke="black" points="755.5,-109.5 755.5,-145.5 "/>
<text text-anchor="middle" x="809" y="-123.8" font-family="Times,serif" font-size="14.00">data &#45;2.0000</text>
<polyline fill="none" stroke="black" points="862.5,-109.5 862.5,-145.5 "/>
<text text-anchor="middle" x="914.5" y="-123.8" font-family="Times,serif" font-size="14.00">grad 4.0000</text>
</g>
<!-- 140012271510288* -->
<g id="node6" class="node">
<title>140012271510288*</title>
<ellipse fill="none" stroke="black" cx="1031" cy="-99.5" rx="27" ry="18"/>
<text text-anchor="middle" x="1031" y="-95.8" font-family="Times,serif" font-size="14.00">*</text>
</g>
<!-- 140012270732304&#45;&gt;140012271510288* -->
<g id="edge5" class="edge">
<title>140012270732304&#45;&gt;140012271510288*</title>
<path fill="none" stroke="black" d="M966.13,-109.49C976.27,-107.91 985.92,-106.4 994.51,-105.05"/>
<polygon fill="black" stroke="black" points="995.09,-108.5 1004.43,-103.5 994.01,-101.59 995.09,-108.5"/>
</g>
<!-- 140012271199888 -->
<g id="node2" class="node">
<title>140012271199888</title>
<polygon fill="none" stroke="black" points="732,-54.5 732,-90.5 968,-90.5 968,-54.5 732,-54.5"/>
<text text-anchor="middle" x="745" y="-68.8" font-family="Times,serif" font-size="14.00">d</text>
<polyline fill="none" stroke="black" points="758,-54.5 758,-90.5 "/>
<text text-anchor="middle" x="809" y="-68.8" font-family="Times,serif" font-size="14.00">data 4.0000</text>
<polyline fill="none" stroke="black" points="860,-54.5 860,-90.5 "/>
<text text-anchor="middle" x="914" y="-68.8" font-family="Times,serif" font-size="14.00">grad &#45;2.0000</text>
</g>
<!-- 140012271199888&#45;&gt;140012271510288* -->
<g id="edge7" class="edge">
<title>140012271199888&#45;&gt;140012271510288*</title>
<path fill="none" stroke="black" d="M968.15,-90.17C977.53,-91.58 986.46,-92.93 994.46,-94.14"/>
<polygon fill="black" stroke="black" points="994.01,-97.61 1004.42,-95.64 995.06,-90.69 994.01,-97.61"/>
</g>
<!-- 140012271199888+ -->
<g id="node3" class="node">
<title>140012271199888+</title>
<ellipse fill="none" stroke="black" cx="669" cy="-72.5" rx="27" ry="18"/>
<text text-anchor="middle" x="669" y="-68.8" font-family="Times,serif" font-size="14.00">+</text>
</g>
<!-- 140012271199888+&#45;&gt;140012271199888 -->
<g id="edge1" class="edge">
<title>140012271199888+&#45;&gt;140012271199888</title>
<path fill="none" stroke="black" d="M696.03,-72.5C703.58,-72.5 712.38,-72.5 721.87,-72.5"/>
<polygon fill="black" stroke="black" points="721.99,-76 731.99,-72.5 721.99,-69 721.99,-76"/>
</g>
<!-- 140012132103120 -->
<g id="node4" class="node">
<title>140012132103120</title>
<polygon fill="none" stroke="black" points="363,-82.5 363,-118.5 606,-118.5 606,-82.5 363,-82.5"/>
<text text-anchor="middle" x="375" y="-96.8" font-family="Times,serif" font-size="14.00">c</text>
<polyline fill="none" stroke="black" points="387,-82.5 387,-118.5 "/>
<text text-anchor="middle" x="442.5" y="-96.8" font-family="Times,serif" font-size="14.00">data 10.0000</text>
<polyline fill="none" stroke="black" points="498,-82.5 498,-118.5 "/>
<text text-anchor="middle" x="552" y="-96.8" font-family="Times,serif" font-size="14.00">grad &#45;2.0000</text>
</g>
<!-- 140012132103120&#45;&gt;140012271199888+ -->
<g id="edge4" class="edge">
<title>140012132103120&#45;&gt;140012271199888+</title>
<path fill="none" stroke="black" d="M602.89,-82.49C613.53,-80.86 623.65,-79.3 632.61,-77.93"/>
<polygon fill="black" stroke="black" points="633.2,-81.38 642.55,-76.4 632.14,-74.46 633.2,-81.38"/>
</g>
<!-- 140012271510288 -->
<g id="node5" class="node">
<title>140012271510288</title>
<polygon fill="none" stroke="black" points="1094,-81.5 1094,-117.5 1331,-117.5 1331,-81.5 1094,-81.5"/>
<text text-anchor="middle" x="1107" y="-95.8" font-family="Times,serif" font-size="14.00">L</text>
<polyline fill="none" stroke="black" points="1120,-81.5 1120,-117.5 "/>
<text text-anchor="middle" x="1173.5" y="-95.8" font-family="Times,serif" font-size="14.00">data &#45;8.0000</text>
<polyline fill="none" stroke="black" points="1227,-81.5 1227,-117.5 "/>
<text text-anchor="middle" x="1279" y="-95.8" font-family="Times,serif" font-size="14.00">grad 1.0000</text>
</g>
<!-- 140012271510288*&#45;&gt;140012271510288 -->
<g id="edge2" class="edge">
<title>140012271510288*&#45;&gt;140012271510288</title>
<path fill="none" stroke="black" d="M1058.1,-99.5C1065.61,-99.5 1074.33,-99.5 1083.75,-99.5"/>
<polygon fill="black" stroke="black" points="1083.78,-103 1093.78,-99.5 1083.78,-96 1083.78,-103"/>
</g>
<!-- 140012271516432 -->
<g id="node7" class="node">
<title>140012271516432</title>
<polygon fill="none" stroke="black" points="3,-55.5 3,-91.5 234,-91.5 234,-55.5 3,-55.5"/>
<text text-anchor="middle" x="15.5" y="-69.8" font-family="Times,serif" font-size="14.00">a</text>
<polyline fill="none" stroke="black" points="28,-55.5 28,-91.5 "/>
<text text-anchor="middle" x="79" y="-69.8" font-family="Times,serif" font-size="14.00">data 2.0000</text>
<polyline fill="none" stroke="black" points="130,-55.5 130,-91.5 "/>
<text text-anchor="middle" x="182" y="-69.8" font-family="Times,serif" font-size="14.00">grad 0.0000</text>
</g>
<!-- 140012132103568* -->
<g id="node9" class="node">
<title>140012132103568*</title>
<ellipse fill="none" stroke="black" cx="300" cy="-45.5" rx="27" ry="18"/>
<text text-anchor="middle" x="300" y="-41.8" font-family="Times,serif" font-size="14.00">*</text>
</g>
<!-- 140012271516432&#45;&gt;140012132103568* -->
<g id="edge6" class="edge">
<title>140012271516432&#45;&gt;140012132103568*</title>
<path fill="none" stroke="black" d="M234.2,-55.61C244.76,-53.96 254.83,-52.39 263.74,-51"/>
<polygon fill="black" stroke="black" points="264.3,-54.46 273.64,-49.46 263.22,-47.54 264.3,-54.46"/>
</g>
<!-- 140012132103568 -->
<g id="node8" class="node">
<title>140012132103568</title>
<polygon fill="none" stroke="black" points="364.5,-27.5 364.5,-63.5 604.5,-63.5 604.5,-27.5 364.5,-27.5"/>
<text text-anchor="middle" x="377" y="-41.8" font-family="Times,serif" font-size="14.00">e</text>
<polyline fill="none" stroke="black" points="389.5,-27.5 389.5,-63.5 "/>
<text text-anchor="middle" x="443" y="-41.8" font-family="Times,serif" font-size="14.00">data &#45;6.0000</text>
<polyline fill="none" stroke="black" points="496.5,-27.5 496.5,-63.5 "/>
<text text-anchor="middle" x="550.5" y="-41.8" font-family="Times,serif" font-size="14.00">grad &#45;2.0000</text>
</g>
<!-- 140012132103568&#45;&gt;140012271199888+ -->
<g id="edge9" class="edge">
<title>140012132103568&#45;&gt;140012271199888+</title>
<path fill="none" stroke="black" d="M604.68,-63.13C614.57,-64.6 623.98,-65.99 632.37,-67.23"/>
<polygon fill="black" stroke="black" points="632.02,-70.71 642.42,-68.72 633.04,-63.79 632.02,-70.71"/>
</g>
<!-- 140012132103568*&#45;&gt;140012132103568 -->
<g id="edge3" class="edge">
<title>140012132103568*&#45;&gt;140012132103568</title>
<path fill="none" stroke="black" d="M327.15,-45.5C334.98,-45.5 344.16,-45.5 354.06,-45.5"/>
<polygon fill="black" stroke="black" points="354.19,-49 364.19,-45.5 354.19,-42 354.19,-49"/>
</g>
<!-- 140012271517136 -->
<g id="node10" class="node">
<title>140012271517136</title>
<polygon fill="none" stroke="black" points="0,-0.5 0,-36.5 237,-36.5 237,-0.5 0,-0.5"/>
<text text-anchor="middle" x="13" y="-14.8" font-family="Times,serif" font-size="14.00">b</text>
<polyline fill="none" stroke="black" points="26,-0.5 26,-36.5 "/>
<text text-anchor="middle" x="79.5" y="-14.8" font-family="Times,serif" font-size="14.00">data &#45;3.0000</text>
<polyline fill="none" stroke="black" points="133,-0.5 133,-36.5 "/>
<text text-anchor="middle" x="185" y="-14.8" font-family="Times,serif" font-size="14.00">grad 0.0000</text>
</g>
<!-- 140012271517136&#45;&gt;140012132103568* -->
<g id="edge8" class="edge">
<title>140012271517136&#45;&gt;140012132103568*</title>
<path fill="none" stroke="black" d="M237.23,-36.21C246.6,-37.62 255.52,-38.96 263.52,-40.16"/>
<polygon fill="black" stroke="black" points="263.06,-43.63 273.47,-41.66 264.1,-36.71 263.06,-43.63"/>
</g>
</g>
</svg>
