<?xml version="1.0" encoding="UTF-8" standalone="no"?>
<!DOCTYPE svg PUBLIC "-//W3C//DTD SVG 1.1//EN"
 "http://www.w3.org/Graphics/SVG/1.1/DTD/svg11.dtd">
<!-- Generated by graphviz version 2.43.0 (0)
 -->
<!-- Title: %3 Pages: 1 -->
<svg width="1332pt" height="154pt"
 viewBox="0.00 0.00 1332.00 154.00" xmlns="http://www.w3.org/2000/svg" xmlns:xlink="http://www.w3.org/1999/xlink">
<g id="graph0" class="graph" transform="scale(1 1) rotate(0) translate(4 150)">
<title>%3</title>
<polygon fill="white" stroke="transparent" points="-4,4 -4,-150 1328,-150 1328,4 -4,4"/>
<!-- 140012270732304 -->
<g id="node1" class="node">
<title>140012270732304</title>
<polygon fill="none" stroke="black" points="728,-109.5 728,-145.5 961,-145.5 961,-109.5 728,-109.5"/>
<text text-anchor="middle" x="739" y="-123.8" font-family="Times,serif" font-size="14.00">f</text>
<polyline fill="none" stroke="black" points="750,-109.5 750,-145.5 "/>
<text text-anchor="middle" x="803.5" y="-123.8" font-family="Times,serif" font-size="14.00">data &#45;2.0000</text>
<polyline fill="none" stroke="black" points="857,-109.5 857,-145.5 "/>
<text text-anchor="middle" x="909" y="-123.8" font-family="Times,serif" font-size="14.00">grad 0.0000</text>
</g>
<!-- 140012271510288* -->
<g id="node6" class="node">
<title>140012271510288*</title>
<ellipse fill="none" stroke="black" cx="1024" cy="-99.5" rx="27" ry="18"/>
<text text-anchor="middle" x="1024" y="-95.8" font-family="Times,serif" font-size="14.00">*</text>
</g>
<!-- 140012270732304&#45;&gt;140012271510288* -->
<g id="edge5" class="edge">
<title>140012270732304&#45;&gt;140012271510288*</title>
<path fill="none" stroke="black" d="M959.67,-109.49C969.61,-107.92 979.08,-106.43 987.53,-105.1"/>
<polygon fill="black" stroke="black" points="988.31,-108.52 997.64,-103.5 987.22,-101.6 988.31,-108.52"/>
</g>
<!-- 140012271199888 -->
<g id="node2" class="node">
<title>140012271199888</title>
<polygon fill="none" stroke="black" points="728.5,-54.5 728.5,-90.5 960.5,-90.5 960.5,-54.5 728.5,-54.5"/>
<text text-anchor="middle" x="741.5" y="-68.8" font-family="Times,serif" font-size="14.00">d</text>
<polyline fill="none" stroke="black" points="754.5,-54.5 754.5,-90.5 "/>
<text text-anchor="middle" x="805.5" y="-68.8" font-family="Times,serif" font-size="14.00">data 4.0000</text>
<polyline fill="none" stroke="black" points="856.5,-54.5 856.5,-90.5 "/>
<text text-anchor="middle" x="908.5" y="-68.8" font-family="Times,serif" font-size="14.00">grad 0.0000</text>
</g>
<!-- 140012271199888&#45;&gt;140012271510288* -->
<g id="edge7" class="edge">
<title>140012271199888&#45;&gt;140012271510288*</title>
<path fill="none" stroke="black" d="M960.92,-90.06C970.4,-91.5 979.44,-92.87 987.54,-94.11"/>
<polygon fill="black" stroke="black" points="987.19,-97.59 997.6,-95.64 988.24,-90.67 987.19,-97.59"/>
</g>
<!-- 140012271199888+ -->
<g id="node3" class="node">
<title>140012271199888+</title>
<ellipse fill="none" stroke="black" cx="665" cy="-72.5" rx="27" ry="18"/>
<text text-anchor="middle" x="665" y="-68.8" font-family="Times,serif" font-size="14.00">+</text>
</g>
<!-- 140012271199888+&#45;&gt;140012271199888 -->
<g id="edge1" class="edge">
<title>140012271199888+&#45;&gt;140012271199888</title>
<path fill="none" stroke="black" d="M692.19,-72.5C699.78,-72.5 708.61,-72.5 718.11,-72.5"/>
<polygon fill="black" stroke="black" points="718.24,-76 728.24,-72.5 718.24,-69 718.24,-76"/>
</g>
<!-- 140012132103120 -->
<g id="node4" class="node">
<title>140012132103120</title>
<polygon fill="none" stroke="black" points="363,-82.5 363,-118.5 602,-118.5 602,-82.5 363,-82.5"/>
<text text-anchor="middle" x="375" y="-96.8" font-family="Times,serif" font-size="14.00">c</text>
<polyline fill="none" stroke="black" points="387,-82.5 387,-118.5 "/>
<text text-anchor="middle" x="442.5" y="-96.8" font-family="Times,serif" font-size="14.00">data 10.0000</text>
<polyline fill="none" stroke="black" points="498,-82.5 498,-118.5 "/>
<text text-anchor="middle" x="550" y="-96.8" font-family="Times,serif" font-size="14.00">grad 0.0000</text>
</g>
<!-- 140012132103120&#45;&gt;140012271199888+ -->
<g id="edge4" class="edge">
<title>140012132103120&#45;&gt;140012271199888+</title>
<path fill="none" stroke="black" d="M599.6,-82.49C609.91,-80.89 619.74,-79.37 628.46,-78.01"/>
<polygon fill="black" stroke="black" points="629.18,-81.44 638.52,-76.45 628.1,-74.53 629.18,-81.44"/>
</g>
<!-- 140012271510288 -->
<g id="node5" class="node">
<title>140012271510288</title>
<polygon fill="none" stroke="black" points="1087,-81.5 1087,-117.5 1324,-117.5 1324,-81.5 1087,-81.5"/>
<text text-anchor="middle" x="1100" y="-95.8" font-family="Times,serif" font-size="14.00">L</text>
<polyline fill="none" stroke="black" points="1113,-81.5 1113,-117.5 "/>
<text text-anchor="middle" x="1166.5" y="-95.8" font-family="Times,serif" font-size="14.00">data &#45;8.0000</text>
<polyline fill="none" stroke="black" points="1220,-81.5 1220,-117.5 "/>
<text text-anchor="middle" x="1272" y="-95.8" font-family="Times,serif" font-size="14.00">grad 0.0000</text>
</g>
<!-- 140012271510288*&#45;&gt;140012271510288 -->
<g id="edge2" class="edge">
<title>140012271510288*&#45;&gt;140012271510288</title>
<path fill="none" stroke="black" d="M1051.1,-99.5C1058.61,-99.5 1067.33,-99.5 1076.75,-99.5"/>
<polygon fill="black" stroke="black" points="1076.78,-103 1086.78,-99.5 1076.78,-96 1076.78,-103"/>
</g>
<!-- 140012271516432 -->
<g id="node7" class="node">
<title>140012271516432</title>
<polygon fill="none" stroke="black" points="3,-55.5 3,-91.5 234,-91.5 234,-55.5 3,-55.5"/>
<text text-anchor="middle" x="15.5" y="-69.8" font-family="Times,serif" font-size="14.00">a</text>
<polyline fill="none" stroke="black" points="28,-55.5 28,-91.5 "/>
<text text-anchor="middle" x="79" y="-69.8" font-family="Times,serif" font-size="14.00">data 2.0000</text>
<polyline fill="none" stroke="black" points="130,-55.5 130,-91.5 "/>
<text text-anchor="middle" x="182" y="-69.8" font-family="Times,serif" font-size="14.00">grad 0.0000</text>
</g>
<!-- 140012132103568* -->
<g id="node9" class="node">
<title>140012132103568*</title>
<ellipse fill="none" stroke="black" cx="300" cy="-45.5" rx="27" ry="18"/>
<text text-anchor="middle" x="300" y="-41.8" font-family="Times,serif" font-size="14.00">*</text>
</g>
<!-- 140012271516432&#45;&gt;140012132103568* -->
<g id="edge6" class="edge">
<title>140012271516432&#45;&gt;140012132103568*</title>
<path fill="none" stroke="black" d="M234.2,-55.61C244.76,-53.96 254.83,-52.39 263.74,-51"/>
<polygon fill="black" stroke="black" points="264.3,-54.46 273.64,-49.46 263.22,-47.54 264.3,-54.46"/>
</g>
<!-- 140012132103568 -->
<g id="node8" class="node">
<title>140012132103568</title>
<polygon fill="none" stroke="black" points="364.5,-27.5 364.5,-63.5 600.5,-63.5 600.5,-27.5 364.5,-27.5"/>
<text text-anchor="middle" x="377" y="-41.8" font-family="Times,serif" font-size="14.00">e</text>
<polyline fill="none" stroke="black" points="389.5,-27.5 389.5,-63.5 "/>
<text text-anchor="middle" x="443" y="-41.8" font-family="Times,serif" font-size="14.00">data &#45;6.0000</text>
<polyline fill="none" stroke="black" points="496.5,-27.5 496.5,-63.5 "/>
<text text-anchor="middle" x="548.5" y="-41.8" font-family="Times,serif" font-size="14.00">grad 0.0000</text>
</g>
<!-- 140012132103568&#45;&gt;140012271199888+ -->
<g id="edge9" class="edge">
<title>140012132103568&#45;&gt;140012271199888+</title>
<path fill="none" stroke="black" d="M600.62,-63.02C610.5,-64.5 619.9,-65.9 628.3,-67.16"/>
<polygon fill="black" stroke="black" points="627.95,-70.65 638.36,-68.66 628.99,-63.72 627.95,-70.65"/>
</g>
<!-- 140012132103568*&#45;&gt;140012132103568 -->
<g id="edge3" class="edge">
<title>140012132103568*&#45;&gt;140012132103568</title>
<path fill="none" stroke="black" d="M327.25,-45.5C335.09,-45.5 344.27,-45.5 354.17,-45.5"/>
<polygon fill="black" stroke="black" points="354.28,-49 364.28,-45.5 354.28,-42 354.28,-49"/>
</g>
<!-- 140012271517136 -->
<g id="node10" class="node">
<title>140012271517136</title>
<polygon fill="none" stroke="black" points="0,-0.5 0,-36.5 237,-36.5 237,-0.5 0,-0.5"/>
<text text-anchor="middle" x="13" y="-14.8" font-family="Times,serif" font-size="14.00">b</text>
<polyline fill="none" stroke="black" points="26,-0.5 26,-36.5 "/>
<text text-anchor="middle" x="79.5" y="-14.8" font-family="Times,serif" font-size="14.00">data &#45;3.0000</text>
<polyline fill="none" stroke="black" points="133,-0.5 133,-36.5 "/>
<text text-anchor="middle" x="185" y="-14.8" font-family="Times,serif" font-size="14.00">grad 0.0000</text>
</g>
<!-- 140012271517136&#45;&gt;140012132103568* -->
<g id="edge8" class="edge">
<title>140012271517136&#45;&gt;140012132103568*</title>
<path fill="none" stroke="black" d="M237.23,-36.21C246.6,-37.62 255.52,-38.96 263.52,-40.16"/>
<polygon fill="black" stroke="black" points="263.06,-43.63 273.47,-41.66 264.1,-36.71 263.06,-43.63"/>
</g>
</g>
</svg>
